<svg xmlns="http://www.w3.org/2000/svg" xmlns:xlink="http://www.w3.org/1999/xlink" width="1298" height="397.672" viewBox="0 0 1298 397.672"><defs><clipPath id="a"><path d="M0-121H154.858q30.3,0,54.705,7.88t41.8,23.357A103.794,103.794,0,0,1,278.295-51.21q9.538,23.076,9.538,53.468,0,37.146-16.271,64.443a125.105,125.105,0,0,1-43.2,43.619L308.593,254.4h-106.6l-63.4-127.76H97.067V254.4H0Z" transform="translate(0 121)"/></clipPath><clipPath id="b"><path d="M-550,2805.882H5558.235V-630H-550Z" transform="translate(550 630)"/></clipPath><clipPath id="c"><path d="M111-121H224.982V254.4H111Z" transform="translate(-111 121)"/></clipPath><clipPath id="e"><path d="M356.245,272.672q-42.633,0-78.728-15.033a191.909,191.909,0,0,1-62.527-41.412q-26.432-26.379-41.211-62.969T159,73.552q0-43.114,14.779-79.7T214.99-69.122a188.237,188.237,0,0,1,62.527-41.129Q313.613-125,356.245-125t79.012,14.749q36.38,14.75,62.527,41.129T538.711-6.152q14.779,36.59,14.779,79.7t-14.779,79.7q-14.78,36.59-40.927,62.969t-62.527,41.412Q398.877,272.672,356.245,272.672Z" transform="translate(-159 125)"/></clipPath><clipPath id="g"><path d="M299-121H443.582q43.487,0,80.48,11.256t64.1,34.332q27.109,23.076,42.358,59.1T645.77,68.671q0,46.714-15.531,81.328T587.6,207.969q-27.109,23.357-64.384,34.895t-80.2,11.538H299Z" transform="translate(-299 121)"/></clipPath></defs><g transform="translate(-2427 -1050)"><g transform="translate(2427 1062.725)" clip-path="url(#a)"><g transform="translate(-1749.755 -1619.319)" clip-path="url(#b)"><path d="M-5-126H335.407V281.216H-5Z" transform="translate(1738.848 1729.412)"/></g></g><g transform="translate(2780.132 1062.725)" clip-path="url(#c)"><g transform="translate(-2102.887 -1619.319)" clip-path="url(#b)"><path d="M106-126H251.8V281.216H106Z" transform="translate(1980.98 1729.412)"/></g></g><g transform="translate(2932.838 1050)" clip-path="url(#e)"><g transform="translate(-2255.593 -1606.593)" clip-path="url(#b)"><path d="M154-130H580.3V299.485H154Z" transform="translate(2085.686 1720.686)"/></g></g><g transform="translate(3378.23 1062.725)" clip-path="url(#g)"><g transform="translate(-2700.985 -1619.319)" clip-path="url(#b)"><path d="M294-126H672.583V281.216H294Z" transform="translate(2391.078 1729.412)"/></g></g></g></svg>